<svg width="52" height="18" viewBox="0 0 52 18" fill="none" xmlns="http://www.w3.org/2000/svg">
<path d="M36.25 4.5H37.75H49.75" stroke="#838383" stroke-width="2" stroke-linecap="round" stroke-linejoin="round"/>
<path d="M40 4.5V3C40 2.60218 40.158 2.22064 40.4393 1.93934C40.7206 1.65804 41.1022 1.5 41.5 1.5H44.5C44.8978 1.5 45.2794 1.65804 45.5607 1.93934C45.842 2.22064 46 2.60218 46 3V4.5M48.25 4.5V15C48.25 15.3978 48.092 15.7794 47.8107 16.0607C47.5294 16.342 47.1478 16.5 46.75 16.5H39.25C38.8522 16.5 38.4706 16.342 38.1893 16.0607C37.908 15.7794 37.75 15.3978 37.75 15V4.5H48.25Z" stroke="#838383" stroke-width="2" stroke-linecap="round" stroke-linejoin="round"/>
<path d="M41.5 8.25V12.75" stroke="#838383" stroke-width="2" stroke-linecap="round" stroke-linejoin="round"/>
<path d="M44.5 8.25V12.75" stroke="#838383" stroke-width="2" stroke-linecap="round" stroke-linejoin="round"/>
<g clip-path="url(#clip0_108_34139)">
<path d="M12.75 2.24998C12.947 2.053 13.1808 1.89674 13.4382 1.79014C13.6956 1.68353 13.9714 1.62866 14.25 1.62866C14.5286 1.62866 14.8044 1.68353 15.0618 1.79014C15.3192 1.89674 15.553 2.053 15.75 2.24998C15.947 2.44697 16.1032 2.68082 16.2098 2.93819C16.3165 3.19556 16.3713 3.47141 16.3713 3.74998C16.3713 4.02856 16.3165 4.30441 16.2098 4.56178C16.1032 4.81915 15.947 5.053 15.75 5.24998L5.625 15.375L1.5 16.5L2.625 12.375L12.75 2.24998Z" stroke="#838383" stroke-width="2" stroke-linecap="round" stroke-linejoin="round"/>
</g>
<defs>
<clipPath id="clip0_108_34139">
<rect width="18" height="18" fill="white"/>
</clipPath>
</defs>
</svg>
