<svg width="14" height="7" viewBox="0 0 14 7" fill="none" xmlns="http://www.w3.org/2000/svg">
<path d="M6.989 6.38126C6.75576 6.38168 6.52972 6.30751 6.35012 6.17163L0.36062 1.6144C0.156761 1.45969 0.0285612 1.23738 0.0042241 0.99637C-0.020113 0.75536 0.061406 0.515394 0.230848 0.329261C0.400289 0.143129 0.643774 0.0260776 0.907737 0.0038568C1.1717 -0.018364 1.43452 0.0560659 1.63838 0.210773L6.989 4.29405L12.3396 0.356605C12.4417 0.280895 12.5592 0.224357 12.6853 0.19024C12.8115 0.156123 12.9437 0.1451 13.0745 0.157805C13.2053 0.17051 13.3321 0.206691 13.4475 0.264271C13.5629 0.32185 13.6648 0.399692 13.7472 0.493322C13.8386 0.587038 13.9078 0.696982 13.9505 0.816267C13.9932 0.935551 14.0085 1.0616 13.9954 1.18653C13.9823 1.31146 13.941 1.43256 13.8743 1.54226C13.8075 1.65196 13.7167 1.74789 13.6074 1.82403L7.6179 6.22631C7.43314 6.34072 7.21171 6.39527 6.989 6.38126Z" fill="black"/>
</svg>
