<svg width="23" height="24" viewBox="0 0 23 24" fill="none" xmlns="http://www.w3.org/2000/svg">
<path d="M22.9994 10.2252L22.2004 1.65117C22.1599 1.20683 21.8116 0.855755 21.3743 0.81187L12.9361 0H12.9253C12.8389 0 12.7714 0.0274281 12.7201 0.0795413L0.0789417 12.9241C0.0539175 12.9495 0.0340641 12.9796 0.0205182 13.0128C0.00697234 13.046 0 13.0815 0 13.1175C0 13.1534 0.00697234 13.1889 0.0205182 13.2221C0.0340641 13.2553 0.0539175 13.2855 0.0789417 13.3108L9.89928 23.2891C9.95057 23.3413 10.0181 23.3687 10.0909 23.3687C10.1638 23.3687 10.2313 23.3413 10.2826 23.2891L22.9238 10.4446C22.9778 10.387 23.0048 10.3075 22.9994 10.2252ZM10.0882 20.5354L2.78912 13.1188L13.5785 2.15584L20.246 2.79766L20.8777 9.57238L10.0882 20.5354ZM16.035 4.66277C14.7258 4.66277 13.6595 5.74617 13.6595 7.07643C13.6595 8.40669 14.7258 9.4901 16.035 9.4901C17.3442 9.4901 18.4104 8.40669 18.4104 7.07643C18.4104 5.74617 17.3442 4.66277 16.035 4.66277ZM16.035 7.95413C15.5572 7.95413 15.1712 7.56191 15.1712 7.07643C15.1712 6.59096 15.5572 6.19874 16.035 6.19874C16.5128 6.19874 16.8988 6.59096 16.8988 7.07643C16.8988 7.56191 16.5128 7.95413 16.035 7.95413Z" fill="#CACACA"/>
</svg>
