<svg width="217" height="89" viewBox="0 0 217 89" fill="none" xmlns="http://www.w3.org/2000/svg">
<path d="M216.5 77.2505H0.5V77.3095H216.5V77.2505Z" fill="#EBEBEB" stroke="#D9D9D9"/>
<path d="M17.8972 79.4825H12.8887V79.5415H17.8972V79.4825Z" fill="#EBEBEB" stroke="#D9D9D9"/>
<path d="M101.361 78.8466H81.2949V78.9056H101.361V78.8466Z" fill="#EBEBEB" stroke="#D9D9D9"/>
<path d="M25.4813 81.6599H16.4814V81.7189H25.4813V81.6599Z" fill="#EBEBEB" stroke="#D9D9D9"/>
<path d="M204.669 81.2661H194.469V81.3251H204.669V81.2661Z" fill="#EBEBEB" stroke="#D9D9D9"/>
<path d="M174.323 81.2661H171.496V81.3251H174.323V81.2661Z" fill="#EBEBEB" stroke="#D9D9D9"/>
<path d="M159.505 80.2771H154.074V80.3361H159.505V80.2771Z" fill="#EBEBEB" stroke="#D9D9D9"/>
<path d="M142.356 80.2771H130.917V80.3361H142.356V80.2771Z" fill="#EBEBEB" stroke="#D9D9D9"/>
<path d="M56.4695 66.7959H10.8698C10.5126 66.7954 10.1702 66.6542 9.91782 66.4033C9.66544 66.1524 9.52368 65.8123 9.52368 65.4577V1.82729C9.52658 1.47461 9.66961 1.13733 9.92168 0.88878C10.1738 0.64023 10.5145 0.500511 10.8698 0.5H56.4695C56.6466 0.5 56.8218 0.534615 56.9854 0.601866C57.149 0.669116 57.2976 0.767684 57.4227 0.891948C57.5479 1.01621 57.6472 1.16373 57.715 1.32609C57.7827 1.48845 57.8176 1.66246 57.8176 1.8382V65.4567C57.8177 65.6325 57.783 65.8066 57.7153 65.9691C57.6476 66.1316 57.5483 66.2792 57.4231 66.4036C57.2979 66.528 57.1493 66.6266 56.9856 66.6939C56.822 66.7613 56.6466 66.7959 56.4695 66.7959ZM10.8698 0.546625C10.5282 0.54715 10.2008 0.682202 9.95951 0.92213C9.71819 1.16206 9.58264 1.48725 9.58264 1.8263V65.4567C9.58264 65.7958 9.71819 66.1209 9.95951 66.3609C10.2008 66.6008 10.5282 66.7359 10.8698 66.7364H56.4695C56.8112 66.7356 57.1386 66.6005 57.3802 66.3607C57.6218 66.1209 57.7578 65.7959 57.7586 65.4567V1.82729C57.7578 1.48814 57.6218 1.16311 57.3802 0.923292C57.1386 0.683477 56.8112 0.548402 56.4695 0.547616L10.8698 0.546625Z" fill="#EBEBEB" stroke="#D9D9D9"/>
<path d="M205.474 66.7959H159.872C159.514 66.7951 159.172 66.6539 158.919 66.4031C158.667 66.1523 158.524 65.8124 158.523 65.4577V1.82729C158.527 1.47451 158.671 1.13738 158.923 0.888943C159.175 0.640503 159.516 0.500764 159.872 0.5H205.473C205.828 0.501033 206.168 0.640983 206.42 0.889477C206.672 1.13797 206.814 1.47496 206.817 1.82729V65.4577C206.817 65.8118 206.676 66.1514 206.424 66.4022C206.173 66.653 205.831 66.7946 205.474 66.7959ZM159.872 0.546625C159.53 0.547411 159.202 0.682485 158.961 0.9223C158.719 1.16212 158.583 1.48715 158.582 1.8263V65.4567C158.583 65.7959 158.719 66.1209 158.961 66.3607C159.202 66.6005 159.53 66.7356 159.872 66.7364H205.473C205.815 66.7356 206.142 66.6005 206.384 66.3607C206.626 66.1209 206.762 65.7959 206.762 65.4567V1.82729C206.762 1.48814 206.626 1.16311 206.384 0.923292C206.142 0.683477 205.815 0.548402 205.473 0.547616L159.872 0.546625Z" fill="#EBEBEB" stroke="#D9D9D9"/>
<path d="M13.1622 77.2505H21.1348L21.1348 44.2013H13.1622L13.1622 77.2505Z" fill="#E6E6E6" stroke="#D9D9D9"/>
<path d="M14.4872 77.2506H13.1602V74.2746H15.8783L14.4872 77.2506Z" fill="#F0F0F0" stroke="#D9D9D9"/>
<path d="M124.177 77.2505H132.15V44.2013H124.177V77.2505Z" fill="#E6E6E6" stroke="#D9D9D9"/>
<path d="M13.1626 76.1087H67.1177V44.2013L13.1626 44.2013L13.1626 76.1087Z" fill="#F0F0F0" stroke="#D9D9D9"/>
<path d="M14.1919 54.3663L192.47 54.3663V45.6149L14.1919 45.6149V54.3663Z" fill="#E6E6E6" stroke="#D9D9D9"/>
<path d="M14.1924 46.8082L66.0879 46.8082V45.6179L14.1924 45.6179V46.8082Z" fill="#E0E0E0" stroke="#D9D9D9"/>
<path d="M120.029 77.2506H121.356V74.2746H118.636L120.029 77.2506Z" fill="#F0F0F0" stroke="#D9D9D9"/>
<path opacity="0.22" d="M14.1919 64.5312L192.47 64.5312V55.7799L14.1919 55.7799V64.5312Z" fill="#E6E6E6" stroke="#D9D9D9"/>
<path d="M14.1924 56.9732L66.0879 56.9732V55.7828L14.1924 55.7828V56.9732Z" fill="#E0E0E0" stroke="#D9D9D9"/>
<path opacity="0.22" d="M14.1919 74.6932L192.47 74.6932V65.9418L14.1919 65.9418V74.6932Z" fill="#E6E6E6" stroke="#D9D9D9"/>
<path d="M14.1924 67.1352H66.0879V65.9448H14.1924V67.1352Z" fill="#E0E0E0" stroke="#D9D9D9"/>
<path d="M182.97 77.2506H201.458L203.098 19.6098H184.611L182.97 77.2506Z" fill="#E6E6E6" stroke="#D9D9D9"/>
<path d="M182.407 77.2506H200.894L202.535 19.6098H184.048L182.407 77.2506Z" fill="#F0F0F0" stroke="#D9D9D9"/>
<path d="M199.785 75.6118L201.332 21.2505H185.155L183.608 75.6118H199.785Z" fill="#FAFAFA" stroke="#D9D9D9"/>
<path d="M48.6483 35.2297L101.968 35.2297V5.71095L48.6483 5.71095L48.6483 35.2297Z" fill="#F0F0F0" stroke="#D9D9D9"/>
<path d="M17.7496 35.2297L186.134 35.2297V5.71095L17.7496 5.71095V35.2297Z" fill="#F5F5F5" stroke="#D9D9D9"/>
<path opacity="0.22" d="M178.616 32.7735V8.16318L48.6768 8.16318V32.7735L178.616 32.7735Z" fill="white" stroke="#D9D9D9"/>
<path d="M20.3114 42.88C21.3263 42.88 22.1491 42.0632 22.1491 41.0557C22.1491 40.0482 21.3263 39.2314 20.3114 39.2314C19.2964 39.2314 18.4736 40.0482 18.4736 41.0557C18.4736 42.0632 19.2964 42.88 20.3114 42.88Z" fill="#F0F0F0" stroke="#D9D9D9"/>
<path d="M42.7821 42.3116C43.0152 41.331 42.4034 40.3485 41.4156 40.117C40.4278 39.8856 39.438 40.4929 39.2049 41.4735C38.9717 42.454 39.5835 43.4366 40.5713 43.668C41.5591 43.8994 42.5489 43.2921 42.7821 42.3116Z" fill="#E6E6E6" stroke="#D9D9D9"/>
<path d="M47.5682 41.0498C47.8013 40.0692 47.1896 39.0867 46.2017 38.8552C45.2139 38.6238 44.2241 39.2311 43.991 40.2117C43.7578 41.1923 44.3696 42.1748 45.3574 42.4062C46.3453 42.6377 47.335 42.0304 47.5682 41.0498Z" fill="#F0F0F0" stroke="#D9D9D9"/>
<path d="M28.9646 41.7352C28.9646 41.7352 28.8038 44.2013 22.588 44.2013C16.3723 44.2013 16.2134 41.7352 16.2134 41.7352H28.9646Z" fill="#E6E6E6" stroke="#D9D9D9"/>
<path d="M59.5391 87.8371C84.8275 87.8371 105.328 86.649 105.328 85.1835C105.328 83.718 84.8275 82.5299 59.5391 82.5299C34.2508 82.5299 13.7505 83.718 13.7505 85.1835C13.7505 86.649 34.2508 87.8371 59.5391 87.8371Z" fill="#F5F5F5"/>
<path d="M88.932 88.4987H64.2959C63.8885 88.5007 63.485 88.4205 63.1098 88.263C62.7346 88.1055 62.3956 87.8739 62.1133 87.5823C61.8311 87.2907 61.6115 86.9452 61.4679 86.5667C61.3243 86.1883 61.2596 85.7849 61.2779 85.3809L64.026 14.9553C64.068 14.1212 64.4287 13.3343 65.0347 12.755C65.6408 12.1757 66.4465 11.8476 67.2878 11.8375H91.9239C92.3312 11.8359 92.7345 11.9164 93.1095 12.0741C93.4845 12.2318 93.8233 12.4634 94.1055 12.7549C94.3877 13.0464 94.6073 13.3917 94.751 13.7699C94.8948 14.1482 94.9597 14.5514 94.9419 14.9553L92.1928 85.3819C92.1506 86.2157 91.7899 87.0022 91.1841 87.5813C90.5783 88.1603 89.7729 88.4884 88.932 88.4987Z" fill="#263238"/>
<path d="M61.5335 19.1158H61.2976L61.4625 14.9316C61.512 13.8858 61.9628 12.8984 62.7225 12.1722C63.4822 11.4459 64.4931 11.0359 65.5477 11.0261V11.2642C64.5545 11.2752 63.6029 11.6622 62.8875 12.3462C62.172 13.0302 61.7467 13.9596 61.6983 14.9445L61.5335 19.1158Z" fill="#55AB60"/>
<path d="M69.2291 11.0171H67.2214V11.2512H69.2291V11.0171Z" fill="#55AB60"/>
<path d="M87.1908 88.4987H62.5547C62.1473 88.5008 61.7438 88.4206 61.3686 88.263C60.9934 88.1055 60.6544 87.8739 60.3721 87.5823C60.0899 87.2907 59.8703 86.9452 59.7267 86.5668C59.5831 86.1883 59.5184 85.7849 59.5367 85.3809L62.2858 14.9543C62.3277 14.1202 62.6885 13.3333 63.2945 12.754C63.9006 12.1747 64.7063 11.8466 65.5476 11.8365H90.1837C90.591 11.8349 90.9943 11.9154 91.3693 12.0731C91.7443 12.2308 92.0831 12.4624 92.3653 12.7539C92.6474 13.0454 92.8671 13.3907 93.0108 13.769C93.1546 14.1472 93.2195 14.5505 93.2016 14.9543L90.4526 85.3809C90.4106 86.215 90.0499 87.0019 89.4439 87.5813C88.8378 88.1606 88.0321 88.4887 87.1908 88.4987Z" fill="#55AB60"/>
<path opacity="0.8" d="M87.9759 80.3981H62.4044C62.1766 80.3997 61.9508 80.3552 61.7408 80.2674C61.5309 80.1795 61.3411 80.0502 61.1831 79.8872C61.0251 79.7243 60.9021 79.5311 60.8218 79.3194C60.7414 79.1078 60.7053 78.8821 60.7156 78.6562L63.101 17.5553C63.1239 17.0883 63.3257 16.6477 63.665 16.3235C64.0044 15.9994 64.4558 15.8162 64.9267 15.8114H90.4952C90.7231 15.8102 90.9489 15.8551 91.1588 15.9431C91.3687 16.0312 91.5584 16.1608 91.7163 16.3239C91.8743 16.487 91.9972 16.6802 92.0776 16.8919C92.158 17.1036 92.1942 17.3293 92.184 17.5553L89.7987 78.6562C89.7758 79.1224 89.5743 79.5624 89.2355 79.8862C88.8967 80.21 88.4462 80.3931 87.9759 80.3981Z" fill="white"/>
<path opacity="0.4" d="M77.1183 80.3981H70.7417L81.4943 15.8114H87.871L77.1183 80.3981Z" fill="white"/>
<path opacity="0.4" d="M69.6204 80.3981H66.4326L77.1873 15.8114H80.3751L69.6204 80.3981Z" fill="white"/>
<path d="M81.2206 61.5115H68.6482C68.0676 61.5115 67.6069 60.8806 67.5809 60.0513L67.2242 48.4639C67.1962 47.5096 67.7488 46.6783 68.4163 46.6783H82.5856C83.2542 46.6783 83.7429 47.5056 83.6409 48.4639L82.3988 60.0513C82.3098 60.8816 81.7992 61.5115 81.2206 61.5115Z" fill="#55AB60"/>
<path d="M81.22 61.954H68.6476C67.8191 61.954 67.1716 61.1406 67.1386 60.0692L66.7819 48.4817C66.7466 47.8269 66.9741 47.1849 67.4144 46.6961C67.5418 46.5581 67.696 46.447 67.8677 46.3696C68.0395 46.2922 68.2252 46.2501 68.4138 46.2458H82.583C82.7712 46.2503 82.9563 46.2945 83.126 46.3754C83.2957 46.4563 83.4461 46.572 83.5674 46.715C83.7722 46.9657 83.9231 47.2555 84.0107 47.5663C84.0984 47.8772 84.1209 48.2025 84.077 48.5224L82.8349 60.1099C82.8337 60.5585 82.6698 60.9918 82.3733 61.3304C82.0768 61.669 81.6674 61.8904 81.22 61.954ZM68.4157 47.1217C68.3455 47.1272 68.277 47.1464 68.2143 47.1783C68.1515 47.2101 68.0957 47.2539 68.05 47.3072C67.7776 47.6248 67.6397 48.0347 67.6652 48.451L68.022 60.0385C68.039 60.6108 68.3218 61.0751 68.6476 61.0751H81.221C81.5208 61.0751 81.8915 60.6465 81.9605 60.0057L83.2026 48.4182C83.2323 48.2212 83.2222 48.0202 83.1728 47.827C83.1234 47.6339 83.0357 47.4524 82.9148 47.2933C82.8762 47.2426 82.8268 47.2009 82.7702 47.1713C82.7135 47.1416 82.651 47.1247 82.587 47.1217H68.4157Z" fill="#55AB60"/>
<path d="M82.3993 60.4908H82.3523C82.2946 60.4846 82.2387 60.4672 82.1878 60.4396C82.1369 60.412 82.092 60.3747 82.0556 60.3298C82.0193 60.2849 81.9921 60.2334 81.9758 60.1781C81.9595 60.1229 81.9543 60.0649 81.9606 60.0077L83.3276 47.2725C83.5405 45.2825 84.8036 43.7817 86.2656 43.7817H87.22C87.278 43.7817 87.3354 43.793 87.389 43.815C87.4426 43.8371 87.4913 43.8694 87.5323 43.9101C87.5733 43.9508 87.6058 43.9991 87.628 44.0523C87.6502 44.1055 87.6617 44.1625 87.6617 44.2201C87.6617 44.2777 87.6502 44.3347 87.628 44.3879C87.6058 44.4411 87.5733 44.4894 87.5323 44.5302C87.4913 44.5709 87.4426 44.6032 87.389 44.6252C87.3354 44.6472 87.278 44.6586 87.22 44.6586H86.2756C85.2833 44.6586 84.3859 45.849 84.216 47.3657L82.851 60.1019C82.8389 60.2113 82.7857 60.3122 82.7019 60.3843C82.6182 60.4564 82.5101 60.4944 82.3993 60.4908Z" fill="#55AB60"/>
<path d="M71.2338 65.8238C70.9884 65.8192 70.7466 65.7648 70.5232 65.664C70.2997 65.5632 70.0995 65.418 69.9347 65.2375C69.3156 64.5156 69.0069 63.5812 69.0753 62.6355C69.1442 60.8847 70.2135 59.4611 71.4626 59.4611C71.7081 59.4651 71.9502 59.5191 72.1737 59.62C72.3972 59.7209 72.5974 59.8664 72.7617 60.0474C73.3809 60.7693 73.6895 61.7038 73.6212 62.6494C73.5522 64.4003 72.4829 65.8238 71.2338 65.8238ZM71.4696 59.8441C70.4253 59.8441 69.5259 61.1029 69.471 62.6574C69.4354 63.0748 69.4838 63.4951 69.6131 63.894C69.7424 64.2928 69.9502 64.6621 70.2245 64.9806C70.3535 65.124 70.5108 65.2396 70.6866 65.3203C70.8625 65.401 71.0531 65.4451 71.2468 65.4498C72.2901 65.4498 73.1904 64.191 73.2454 62.6365C73.2809 62.219 73.2326 61.7987 73.1033 61.3999C72.974 61.0011 72.7662 60.6317 72.4919 60.3133C72.3617 60.1686 72.2028 60.0523 72.0252 59.9715C71.8475 59.8908 71.655 59.8474 71.4596 59.8441H71.4696Z" fill="#55AB60"/>
<path d="M78.103 65.8238C77.8576 65.8196 77.6156 65.7654 77.3921 65.6646C77.1687 65.5637 76.9684 65.4184 76.8039 65.2375C76.1827 64.5168 75.8738 63.5815 75.9445 62.6355C76.0105 60.8847 77.0827 59.4611 78.3319 59.4611C78.5774 59.4648 78.8196 59.5187 79.0431 59.6196C79.2667 59.7205 79.4668 59.8661 79.631 60.0474C80.2521 60.7682 80.5611 61.7035 80.4904 62.6494C80.4245 64.4003 79.3522 65.8238 78.103 65.8238ZM78.3389 59.8441C77.2926 59.8441 76.3952 61.1029 76.3402 62.6574C76.3048 63.0746 76.3529 63.4947 76.4817 63.8934C76.6105 64.2921 76.8175 64.6616 77.0907 64.9806C77.2198 65.124 77.3771 65.2396 77.5529 65.3203C77.7287 65.401 77.9194 65.4451 78.113 65.4498C79.1593 65.4498 80.0567 64.191 80.1116 62.6365C80.1471 62.2193 80.099 61.7992 79.9702 61.4005C79.8414 61.0017 79.6345 60.6322 79.3612 60.3133C79.2313 60.169 79.0729 60.0529 78.8958 59.9721C78.7187 59.8914 78.5267 59.8478 78.3319 59.8441H78.3389Z" fill="#55AB60"/>
<path d="M80.9736 35.2882C81.2713 31.2052 79.2149 27.7303 76.3806 27.5266C73.5462 27.323 71.0072 30.4677 70.7095 34.5507C70.4118 38.6336 72.4681 42.1086 75.3025 42.3123C78.1368 42.5159 80.6759 39.3711 80.9736 35.2882Z" fill="#55AB60"/>
<path d="M75.5628 42.7658C74.9586 42.7566 74.3628 42.6238 73.8126 42.3759C73.2624 42.1279 72.7697 41.7699 72.365 41.3245C70.8392 39.5436 70.0763 37.2405 70.2395 34.9083C70.4043 30.5921 73.0375 27.0834 76.1154 27.0834C76.7195 27.0924 77.3152 27.2248 77.8654 27.4725C78.4156 27.7201 78.9084 28.0777 79.3133 28.5228C80.8399 30.304 81.6029 32.608 81.4388 34.941C81.2729 39.2542 78.6377 42.7658 75.5628 42.7658ZM76.1174 27.9623C73.5192 27.9623 71.2717 31.094 71.1208 34.944C70.9567 37.0401 71.631 39.1161 72.9976 40.7223C73.3202 41.0807 73.7133 41.3697 74.1528 41.5714C74.5923 41.773 75.0688 41.8831 75.5528 41.8949C78.1511 41.8949 80.3985 38.7631 80.5494 34.9132C80.7147 32.8185 80.0427 30.7435 78.6787 29.1368C78.3557 28.7772 77.9616 28.4872 77.5211 28.285C77.0805 28.0828 76.6027 27.9726 76.1174 27.9613V27.9623Z" fill="white"/>
<path d="M72.3389 34.7605C73.5545 35.9773 74.4932 37.4386 75.092 39.0459C76.0073 36.3358 77.4108 33.8133 79.2341 31.601C77.5241 32.6908 76.1241 34.1977 75.1679 35.9777C74.3475 35.3348 73.3724 34.9153 72.3389 34.7605Z" fill="white"/>
<path d="M74.9634 86.3164C74.7551 86.3147 74.5494 86.2703 74.3592 86.186C74.169 86.1017 73.9984 85.9792 73.8582 85.8263C73.6342 85.5774 73.4625 85.2866 73.3534 84.9709C73.2442 84.6553 73.1998 84.3211 73.2226 83.9881C73.1914 83.434 73.3705 82.8884 73.7245 82.4589C74.0786 82.0294 74.582 81.7472 75.1353 81.6679C75.344 81.6708 75.5498 81.7163 75.74 81.8016C75.9301 81.8869 76.1005 82.0103 76.2405 82.1639C76.4631 82.4116 76.6337 82.7009 76.7423 83.0148C76.8509 83.3287 76.8954 83.6609 76.8731 83.9921C76.9061 84.5466 76.7282 85.0932 76.3745 85.5237C76.0209 85.9541 75.5173 86.237 74.9634 86.3164ZM75.1353 81.9159C74.6472 81.9949 74.2067 82.2527 73.9007 82.6384C73.5947 83.024 73.4455 83.5095 73.4824 83.9991C73.4606 84.2983 73.4994 84.5988 73.5964 84.883C73.6933 85.1672 73.8465 85.4292 74.047 85.6537C74.1642 85.7824 74.3069 85.8856 74.4661 85.957C74.6253 86.0283 74.7977 86.0663 74.9724 86.0684C75.4606 85.9895 75.9012 85.7318 76.2073 85.3461C76.5133 84.9604 76.6625 84.4748 76.6253 83.9852C76.6472 83.6855 76.6085 83.3844 76.5116 83.0998C76.4146 82.8151 76.2613 82.5526 76.0607 82.3276C75.9432 82.1996 75.8003 82.0971 75.6411 82.0264C75.4819 81.9558 75.3097 81.9185 75.1353 81.9169V81.9159Z" fill="white"/>
<path d="M77.7565 14.745C77.6599 14.7425 77.565 14.7205 77.4773 14.6802C77.3897 14.64 77.3112 14.5823 77.2469 14.5109C77.1477 14.4008 77.0718 14.2721 77.0236 14.1324C76.9753 13.9927 76.9558 13.8448 76.966 13.6975C76.9545 13.4501 77.0366 13.2073 77.1962 13.017C77.3557 12.8266 77.5813 12.7024 77.8285 12.6688C77.925 12.6712 78.02 12.6933 78.1076 12.7336C78.1953 12.7738 78.2737 12.8314 78.3381 12.9029C78.4379 13.0127 78.5144 13.1413 78.5631 13.281C78.6119 13.4207 78.6319 13.5688 78.6219 13.7163C78.6334 13.9641 78.5509 14.2072 78.3907 14.3977C78.2305 14.5881 78.0042 14.712 77.7565 14.745ZM77.8274 12.9257C77.5067 12.9257 77.2278 13.2798 77.2139 13.7193C77.1986 13.9492 77.275 14.1758 77.4267 14.3502C77.4685 14.3964 77.5194 14.4336 77.5763 14.4594C77.6333 14.4852 77.6949 14.499 77.7575 14.5C78.0783 14.5 78.3571 14.1458 78.3711 13.7064C78.3875 13.4758 78.3109 13.2481 78.1582 13.0735C78.1162 13.0277 78.0652 12.9909 78.0083 12.9655C77.9514 12.9401 77.8898 12.9265 77.8274 12.9257Z" fill="white"/>
<path d="M48.854 20.0492C46.1498 19.6901 44.6878 21.317 45.4563 24.2692C46.1808 27.0468 44.7788 26.6787 44.5119 29.3115C44.2451 31.9442 46.4316 32.0524 47.1431 34.202C47.8546 36.3517 51.781 38.7939 53.3159 37.6928C54.8509 36.5917 57.8978 36.8447 58.1756 33.206C58.4534 29.5674 55.5544 29.371 56.5487 27.383C57.8478 24.8039 54.9758 25.4328 54.9758 22.1463C54.9848 19.4997 51.1184 16.6308 48.854 20.0492Z" fill="#263238"/>
<path d="M45.4514 34.0562C45.3925 35.1791 45.2885 36.2643 45.1237 37.3684C44.979 38.51 44.7267 39.6355 44.3702 40.7303C44.2595 41.05 44.1187 41.3585 43.9495 41.6518C43.8338 41.8511 43.6916 42.0339 43.5268 42.1955L43.4438 42.2708L43.3988 42.3056L43.3729 42.3264L43.2729 42.3948L43.0731 42.5308C42.5736 42.8489 42.0481 43.125 41.5021 43.3561C40.4678 43.8066 39.3932 44.1596 38.2923 44.4106L37.9126 43.372C38.845 42.8581 39.8023 42.3333 40.6757 41.7848C41.1025 41.5259 41.5127 41.241 41.9039 40.9317L42.0318 40.8215L42.0977 40.768V40.7561C42.0977 40.7561 42.1237 40.7114 42.1567 40.644C42.2406 40.4578 42.3107 40.2659 42.3665 40.0696C42.5007 39.5924 42.6065 39.1078 42.6833 38.6183C42.7733 38.1124 42.8462 37.5936 42.9082 37.0708C43.0291 36.0302 43.133 34.9609 43.208 33.9222L45.4514 34.0562Z" fill="#FFB573"/>
<path d="M38.6167 43.3958L36.813 42.8422L37.1508 45.0088C37.8032 44.9279 38.4144 44.6486 38.9005 44.2092L38.6167 43.3958Z" fill="#FFB573"/>
<path d="M35.331 44.237L35.4309 44.5207C35.4879 44.6818 35.5957 44.8203 35.7383 44.9157C35.8808 45.0111 36.0506 45.0584 36.2224 45.0504L37.1437 45.0078L36.806 42.8413L35.7927 43.2381C35.6007 43.3132 35.4455 43.4592 35.3594 43.6454C35.2734 43.8315 35.2632 44.0435 35.331 44.237Z" fill="#FFB573"/>
<path d="M47.5875 31.963C47.4884 32.9861 47.2834 33.9963 46.976 34.9777C46.7681 35.6999 46.5932 36.2484 46.5932 36.2484L46.1795 36.1493L42.7669 35.2912C42.7129 33.5522 42.7808 31.6387 44.5237 30.4949C45.6189 29.7727 47.5736 30.7578 47.5875 31.963Z" fill="#55AB60"/>
<g opacity="0.5">
<path opacity="0.5" d="M47.5875 31.9641C47.4884 32.9871 47.2834 33.9973 46.976 34.9787C46.7681 35.7009 46.5932 36.2495 46.5932 36.2495L46.1795 36.1503L42.7669 35.2922C42.7129 33.5532 42.7808 31.6397 44.5237 30.4959C45.6189 29.7738 47.5736 30.7588 47.5875 31.9641Z" fill="black"/>
</g>
<path opacity="0.3" d="M47.5783 32.0801C47.3565 31.846 46.8508 31.8063 45.7506 32.1525C44.1727 32.6485 43.7309 34.3627 43.71 35.5253L46.1753 36.1443L46.3881 36.1979L46.588 36.2475C46.588 36.2475 46.6749 35.9737 46.7978 35.5531C46.8478 35.3815 46.9088 35.1851 46.9677 34.9738C47.2619 34.0303 47.4663 33.0615 47.5783 32.0801Z" fill="black"/>
<path d="M40.5787 86.3967L38.4961 85.6726L39.8042 81.1947L41.8848 81.9218L40.5787 86.3967Z" fill="#FFB573"/>
<path d="M68.4032 81.0915L66.7103 82.3435L63.2407 78.8487L64.9336 77.5948L68.4032 81.0915Z" fill="#FFB573"/>
<path d="M66.0156 81.8345L67.8453 80.3317C67.876 80.3049 67.9154 80.2901 67.9563 80.2901C67.9971 80.2901 68.0365 80.3049 68.0672 80.3317L69.4722 81.5975C69.5067 81.6304 69.5338 81.6702 69.5516 81.7143C69.5695 81.7583 69.5776 81.8057 69.5757 81.8531C69.5737 81.9006 69.5616 81.9471 69.5401 81.9895C69.5187 82.032 69.4884 82.0694 69.4512 82.0994C68.8047 82.6123 68.4639 82.8285 67.6615 83.4882C67.1618 83.8939 66.1315 84.8641 65.446 85.4246C64.7605 85.9851 64.1659 85.3452 64.4017 85.0496C65.1318 84.2303 65.6219 83.2282 65.8187 82.152C65.8446 82.0264 65.9143 81.914 66.0156 81.8345Z" fill="#263238"/>
<path d="M38.3541 85.0278L40.6685 85.987C40.7094 86.0051 40.7435 86.0358 40.7656 86.0746C40.7877 86.1133 40.7968 86.1581 40.7914 86.2023L40.5296 88.2279C40.5237 88.2758 40.5066 88.3217 40.4797 88.3619C40.4527 88.4021 40.4167 88.4355 40.3745 88.4594C40.3323 88.4833 40.285 88.497 40.2364 88.4996C40.1879 88.5021 40.1394 88.4933 40.0949 88.4739C39.2754 88.1436 38.8907 87.978 37.8754 87.5574L34.7555 86.2677C33.9101 85.9166 34.092 84.995 34.4747 85.0625C35.6225 85.3489 36.8257 85.3329 37.9653 85.0159C38.0915 84.9694 38.231 84.9737 38.3541 85.0278Z" fill="#263238"/>
<path opacity="0.2" d="M39.801 81.1967L39.1274 83.5031L41.1541 84.4127L41.8835 81.9209L39.801 81.1967Z" fill="black"/>
<path opacity="0.2" d="M64.9366 77.5987L63.2407 78.8486L65.0285 80.6491L66.7273 79.3952L64.9366 77.5987Z" fill="black"/>
<path d="M53.9891 42.9107L45.41 43.0327C44.6341 39.3248 44.1486 35.5629 43.958 31.7805C43.9569 31.4033 44.0879 31.0375 44.3288 30.7457C44.5697 30.4539 44.9053 30.2545 45.2781 30.1815C45.8028 30.0823 46.4593 29.9632 47.1079 29.8739C47.3327 29.8432 47.5585 29.8154 47.7814 29.7916C49.0774 29.6798 50.3799 29.661 51.6787 29.7351C51.8726 29.7351 52.0635 29.7519 52.2553 29.7628C53.1247 29.8194 53.9412 29.9295 54.5158 30.0188C54.6215 30.0355 54.7226 30.0735 54.813 30.1304C54.9034 30.1872 54.9812 30.2619 55.0415 30.3496C55.1019 30.4374 55.1435 30.5364 55.164 30.6407C55.1844 30.745 55.1832 30.8524 55.1603 30.9562C54.9095 32.1287 54.7046 33.1574 54.5388 34.079C54.2769 35.5442 54.111 36.7276 54.0141 37.7662C53.8675 39.4776 53.8591 41.198 53.9891 42.9107Z" fill="#55AB60"/>
<g opacity="0.5">
<path opacity="0.5" d="M53.9891 42.9107L45.41 43.0327C44.6341 39.3248 44.1486 35.5629 43.958 31.7805C43.9569 31.4033 44.0879 31.0375 44.3288 30.7457C44.5697 30.4539 44.9053 30.2545 45.2781 30.1815C45.8028 30.0823 46.4593 29.9632 47.1079 29.8739C47.3327 29.8432 47.5585 29.8154 47.7814 29.7916C49.0774 29.6798 50.3799 29.661 51.6787 29.7351C51.8726 29.7351 52.0635 29.7519 52.2553 29.7628C53.1247 29.8194 53.9412 29.9295 54.5158 30.0188C54.6215 30.0355 54.7226 30.0735 54.813 30.1304C54.9034 30.1872 54.9812 30.2619 55.0415 30.3496C55.1019 30.4374 55.1435 30.5364 55.164 30.6407C55.1844 30.745 55.1832 30.8524 55.1603 30.9562C54.9095 32.1287 54.7046 33.1574 54.5388 34.079C54.2769 35.5442 54.111 36.7276 54.0141 37.7662C53.8675 39.4776 53.8591 41.198 53.9891 42.9107Z" fill="black"/>
</g>
<path opacity="0.3" d="M54.0093 37.7741C53.5747 36.1946 53.5944 34.526 54.0663 32.957L54.5393 34.0869C54.2723 35.5521 54.1063 36.7355 54.0093 37.7741Z" fill="black"/>
<path d="M51.0336 27.1053C50.8923 28.0353 51.1229 28.9834 51.6761 29.747C50.8079 30.7236 49.7594 31.5264 48.5873 32.1119C48.2609 31.8307 48.0145 31.4695 47.8728 31.0642C47.7312 30.659 47.6991 30.2239 47.7798 29.8025C49.1729 29.4513 49.1968 28.5298 48.7881 27.0011L49.8934 26.5557C49.995 26.4671 50.1207 26.4103 50.2547 26.3923C50.3887 26.3742 50.5251 26.3959 50.6469 26.4544C50.7686 26.513 50.8702 26.6058 50.939 26.7214C51.0078 26.837 51.0407 26.9702 51.0336 27.1043V27.1053Z" fill="#FFB573"/>
<path opacity="0.2" d="M49.8948 26.5547C49.99 26.4723 50.1061 26.4175 50.2306 26.3963C50.355 26.3751 50.483 26.3884 50.6003 26.4346C50.7177 26.4808 50.82 26.5582 50.896 26.6583C50.9719 26.7584 51.0187 26.8774 51.0311 27.0021C50.5436 27.7483 49.8312 28.3225 48.9955 28.6429C49.0303 28.0833 48.9598 27.5222 48.7876 26.9882L49.8948 26.5547Z" fill="black"/>
<path d="M53.0286 24.032C52.2821 25.9773 52.0063 26.8146 50.6672 27.5199C50.2509 27.7797 49.7705 27.9206 49.2787 27.9272C48.787 27.9337 48.303 27.8058 47.8797 27.5573C47.4564 27.3087 47.1103 26.9493 46.8793 26.5184C46.6482 26.0874 46.5412 25.6016 46.57 25.1143C46.7019 23.1988 47.9021 20.3418 50.1126 20.1543C50.5983 20.1115 51.0869 20.1926 51.5321 20.39C51.9773 20.5874 52.3643 20.8946 52.6562 21.2822C52.9482 21.6698 53.1355 22.1251 53.2003 22.6049C53.2652 23.0846 53.2053 23.5728 53.0266 24.0231L53.0286 24.032Z" fill="#FFB573"/>
<path d="M49.2775 20.1504C47.8865 22.0987 51.8758 21.6206 51.6759 22.9945C51.56 23.8287 50.3608 25.3832 52.4673 25.6728C54.5739 25.9625 55.0956 22.5501 54.0123 21.2684C52.929 19.9867 50.6406 19.1545 49.2775 20.1504Z" fill="#263238"/>
<path d="M49.7183 20.0919C49.4305 20.7952 47.8975 21.7584 47.3379 21.5799C47.5349 21.1208 47.8684 20.7324 48.2938 20.4665C48.7191 20.2006 49.2161 20.0699 49.7183 20.0919Z" fill="#263238"/>
<path d="M52.9022 26.017C52.691 26.3605 52.3515 26.6073 51.9579 26.7035C51.4332 26.8255 51.1954 26.3563 51.3583 25.8762C51.5042 25.4476 51.9579 24.8633 52.4705 24.9546C52.5831 24.9763 52.6885 25.0256 52.777 25.098C52.8655 25.1704 52.9344 25.2637 52.9773 25.3693C53.0202 25.4749 53.0358 25.5895 53.0227 25.7027C53.0096 25.8158 52.9682 25.9239 52.9022 26.017Z" fill="#FFB573"/>
<path d="M45.408 43.0327C45.408 43.0327 43.956 55.4326 42.6169 63.1464C41.5686 69.1926 38.9194 81.781 38.9194 81.781L42.3581 82.9902C42.3581 82.9902 46.2974 69.8621 46.9869 64.2643C49.764 56.1865 51.7596 42.9642 51.7596 42.9642L45.408 43.0327Z" fill="#55AB60"/>
<path d="M38.3589 82.6321L42.3402 84.0209L42.8718 82.7522L38.5548 81.1134L38.3589 82.6321Z" fill="#263238"/>
<path opacity="0.3" d="M49.7563 46.716L48.4712 49.1613C48.025 52.2071 48.1047 55.3061 48.707 58.3253C49.7773 54.0518 50.6317 49.5551 51.1633 46.5384L49.7563 46.716Z" fill="black"/>
<path d="M47.2715 43.0327C47.2715 43.0327 48.8084 56.9058 51.6785 64.5997C53.1165 68.4684 63.7932 79.917 63.7932 79.917L66.2015 78.0045C66.2015 78.0045 59.4312 66.4497 56.4722 63.4301C55.265 56.7183 56.782 46.6654 53.9739 42.9058L47.2715 43.0327Z" fill="#55AB60"/>
<path d="M63.9992 80.7473L66.8233 78.4479L66.0608 77.2049L62.9629 79.8773L63.9992 80.7473Z" fill="#263238"/>
<path d="M54.1198 42.4117L54.5195 43.1666C54.5505 43.2251 54.4816 43.2886 54.3826 43.2886L45.3828 43.4176C45.3049 43.4176 45.2409 43.3799 45.2339 43.3332L45.147 42.5714C45.147 42.5198 45.2079 42.4722 45.2909 42.4722L53.9849 42.3482C54.0109 42.3469 54.0369 42.352 54.0604 42.3631C54.0839 42.3742 54.1044 42.3909 54.1198 42.4117Z" fill="#263238"/>
<path d="M52.9565 43.3918H53.1925C53.2375 43.3918 53.2725 43.366 53.2705 43.3382L53.1455 42.3462C53.1455 42.3155 53.1025 42.2947 53.0555 42.2947H52.8195C52.7745 42.2947 52.7395 42.3205 52.7435 42.3482L52.8665 43.3402C52.8695 43.368 52.9115 43.3918 52.9565 43.3918Z" fill="#55AB60"/>
<path d="M46.0255 43.4891H46.2615C46.3085 43.4891 46.3415 43.4633 46.3395 43.4355L46.2165 42.4435C46.2165 42.4127 46.1715 42.3899 46.1245 42.3919H45.8885C45.8415 42.3919 45.8055 42.4177 45.8105 42.4455L45.9335 43.4375C45.9375 43.4652 45.9805 43.4891 46.0255 43.4891Z" fill="#55AB60"/>
<path d="M49.4919 43.4335H49.7279C49.7749 43.4335 49.8109 43.4077 49.8059 43.3799L49.6829 42.3879C49.6829 42.3572 49.6379 42.3343 49.5929 42.3363H49.3569C49.3099 42.3363 49.2769 42.3621 49.2789 42.3899L49.4019 43.3819C49.3979 43.4176 49.4449 43.4335 49.4919 43.4335Z" fill="#55AB60"/>
<path d="M49.5815 23.5559C49.5315 23.7176 49.4045 23.8207 49.2975 23.79C49.1905 23.7592 49.1465 23.6005 49.1975 23.4388C49.2485 23.2771 49.3775 23.172 49.4835 23.2047C49.5895 23.2374 49.6335 23.3942 49.5815 23.5559Z" fill="#263238"/>
<path d="M47.7444 22.9845C47.6924 23.1462 47.5644 23.2494 47.4584 23.2186C47.3524 23.1879 47.3074 23.0292 47.3584 22.8675C47.4094 22.7058 47.5354 22.6026 47.6424 22.6334C47.7494 22.6641 47.7944 22.8228 47.7444 22.9845Z" fill="#263238"/>
<path d="M47.6885 22.6552L47.3345 22.4211C47.3345 22.4211 47.4375 22.7871 47.6885 22.6552Z" fill="#263238"/>
<path d="M48.2029 23.4111C47.9423 23.7349 47.6377 24.0213 47.2979 24.2622C47.3625 24.3466 47.4447 24.416 47.539 24.4659C47.6332 24.5157 47.7372 24.5447 47.8439 24.5509L48.2029 23.4111Z" fill="#ED893E"/>
<path d="M48.381 25.4446C48.3727 25.4388 48.3666 25.4304 48.3635 25.4207C48.3604 25.411 48.3606 25.4006 48.364 25.3911C48.3684 25.3785 48.3775 25.3681 48.3894 25.362C48.4013 25.3559 48.4152 25.3546 48.428 25.3584C48.6289 25.426 48.8431 25.4455 49.053 25.4153C49.263 25.3851 49.4628 25.3061 49.636 25.1848C49.6464 25.1763 49.6597 25.1723 49.673 25.1736C49.6863 25.1749 49.6986 25.1814 49.707 25.1917C49.7155 25.202 49.7196 25.2151 49.7182 25.2283C49.7169 25.2416 49.7104 25.2537 49.7 25.2621C49.5145 25.3947 49.2997 25.4813 49.0736 25.5148C48.8474 25.5483 48.6165 25.5276 48.4 25.4546L48.381 25.4446Z" fill="#263238"/>
<path d="M50.288 23.1194C50.2743 23.108 50.2636 23.0933 50.257 23.0768C50.2184 22.9584 50.1521 22.8508 50.0634 22.7629C49.9747 22.6749 49.8663 22.6091 49.747 22.5709C49.7339 22.5679 49.7214 22.5625 49.7104 22.5548C49.6994 22.5471 49.6901 22.5373 49.6829 22.526C49.6683 22.5032 49.6635 22.4756 49.6695 22.4493C49.6755 22.423 49.6917 22.4002 49.7147 22.3857C49.7377 22.3713 49.7655 22.3665 49.792 22.3725C49.944 22.4187 50.0828 22.5002 50.1967 22.6103C50.3106 22.7204 50.3964 22.8558 50.447 23.0054C50.4518 23.0177 50.4541 23.0308 50.4537 23.044C50.4533 23.0571 50.4503 23.0701 50.4448 23.0821C50.4393 23.0941 50.4314 23.1049 50.4217 23.1139C50.4119 23.1228 50.4005 23.1298 50.388 23.1343C50.3714 23.1403 50.3536 23.1421 50.3361 23.1395C50.3186 23.1369 50.3021 23.13 50.288 23.1194Z" fill="#263238"/>
<path d="M47.1969 21.937V21.9201C47.1922 21.8944 47.198 21.8678 47.213 21.8463C47.228 21.8247 47.251 21.8099 47.2769 21.8051C47.4328 21.7737 47.594 21.7799 47.747 21.8233C47.9 21.8666 48.0402 21.9457 48.1559 22.0541C48.1653 22.0633 48.1727 22.0742 48.1778 22.0863C48.1829 22.0984 48.1855 22.1114 48.1855 22.1245C48.1855 22.1376 48.1829 22.1506 48.1778 22.1626C48.1727 22.1747 48.1653 22.1857 48.1559 22.1949C48.1466 22.2042 48.1355 22.2116 48.1233 22.2166C48.1112 22.2217 48.0981 22.2243 48.0849 22.2243C48.0717 22.2243 48.0586 22.2217 48.0464 22.2166C48.0342 22.2116 48.0232 22.2042 48.0139 22.1949C47.9198 22.109 47.8062 22.047 47.6828 22.014C47.5594 21.981 47.4297 21.9781 47.3049 22.0054C47.2815 22.0086 47.2577 22.0035 47.2378 21.991C47.2178 21.9785 47.203 21.9593 47.1959 21.937H47.1969Z" fill="#263238"/>
<path d="M39.0484 31.1953C38.809 30.8661 38.6757 30.4726 38.6661 30.0668C38.6565 29.6609 38.7709 29.2616 38.9945 28.9216C39.5941 28.3026 40.0567 28.128 39.9088 27.0458C39.7609 25.9635 41.4228 25.9952 41.5617 25.1699C42.3901 25.8732 43.2695 27.514 42.7989 28.2669C42.3282 29.0198 42.582 29.5843 42.4801 30.4959C42.3782 31.4075 40.3715 33.3191 39.0484 31.1953Z" fill="#55AB60"/>
<path opacity="0.5" d="M39.0484 31.1953C38.809 30.8661 38.6757 30.4726 38.6661 30.0668C38.6565 29.6609 38.7709 29.2616 38.9945 28.9216C39.5941 28.3026 40.0567 28.128 39.9088 27.0458C39.7609 25.9635 41.4228 25.9952 41.5617 25.1699C42.3901 25.8732 43.2695 27.514 42.7989 28.2669C42.3282 29.0198 42.582 29.5843 42.4801 30.4959C42.3782 31.4075 40.3715 33.3191 39.0484 31.1953Z" fill="white"/>
<path d="M41.6306 26.9088C41.2497 29.5296 40.51 32.0865 39.4321 34.5085C39.6901 34.4876 39.9321 34.3761 40.1147 34.1941C40.1147 34.1941 41.7905 29.6676 41.6306 26.9088Z" fill="#55AB60"/>
<path d="M38.2529 32.4273C37.7212 32.0305 37.0367 31.1258 37.3605 30.3312C37.6842 29.5366 38.055 29.2033 37.5144 28.248C36.9737 27.2927 38.5347 26.7144 38.3578 25.9039C39.3941 26.265 40.8181 27.4673 40.6562 28.3304C40.4943 29.1934 40.942 29.6358 41.1849 30.5197C41.4277 31.4036 40.2725 33.9183 38.2529 32.4273Z" fill="#55AB60"/>
<path opacity="0.6" d="M38.2529 32.4273C37.7212 32.0305 37.0367 31.1258 37.3605 30.3312C37.6842 29.5366 38.055 29.2033 37.5144 28.248C36.9737 27.2927 38.5347 26.7144 38.3578 25.9039C39.3941 26.265 40.8181 27.4673 40.6562 28.3304C40.4943 29.1934 40.942 29.6358 41.1849 30.5197C41.4277 31.4036 40.2725 33.9183 38.2529 32.4273Z" fill="white"/>
<path d="M42.0486 33.1822C42.6062 33.1425 43.5106 32.8072 43.6475 32.091C43.7844 31.3748 43.6715 30.975 44.4929 30.5415C45.3144 30.108 44.4689 28.992 44.9656 28.495C44.0662 28.2837 42.5003 28.495 42.2165 29.1845C41.9327 29.8739 41.417 29.978 40.8374 30.5018C40.2578 31.0256 39.9271 33.332 42.0486 33.1822Z" fill="#55AB60"/>
<path opacity="0.7" d="M42.0486 33.1822C42.6062 33.1425 43.5106 32.8072 43.6475 32.091C43.7844 31.3748 43.6715 30.975 44.4929 30.5415C45.3144 30.108 44.4689 28.992 44.9656 28.495C44.0662 28.2837 42.5003 28.495 42.2165 29.1845C41.9327 29.8739 41.417 29.978 40.8374 30.5018C40.2578 31.0256 39.9271 33.332 42.0486 33.1822Z" fill="white"/>
<path d="M38.9424 28.5208C39.4239 30.7682 39.5038 33.0819 39.1784 35.3567C39.4309 35.3061 39.6556 35.1648 39.8094 34.9599C39.8094 34.9599 40.0574 30.8252 38.9424 28.5208Z" fill="#55AB60"/>
<path d="M43.3566 29.7192C41.7886 31.3757 40.4568 33.2378 39.3983 35.2535C39.2746 35.07 39.2201 34.849 39.2444 34.6295C39.2444 34.6295 41.406 31.0881 43.3566 29.7192Z" fill="#55AB60"/>
<path d="M36.6888 31.9184C36.0202 31.5553 34.7002 32.5701 35.3897 33.7496C36.0792 34.9291 37.5152 35.4747 38.1768 34.8408C39.0882 34.6791 39.4849 33.2159 38.9372 31.964C38.8519 31.7392 38.7007 31.5449 38.5031 31.4062C38.3055 31.2675 38.0706 31.1907 37.8286 31.1858C37.5866 31.1809 37.3487 31.2481 37.1455 31.3786C36.9424 31.5092 36.7833 31.6972 36.6888 31.9184Z" fill="#55AB60"/>
<path d="M36.688 31.9144C36.688 31.9144 36.4519 31.1526 36.8419 30.9085C36.8946 30.9745 36.9434 31.0434 36.988 31.1149C36.988 31.1149 36.723 31.1913 36.688 31.9144Z" fill="#263238"/>
<path d="M44.242 29.9305C44.1621 31.5415 42.4943 32.7646 40.6835 33.1584C40.5721 33.2721 40.4911 33.4115 40.4476 33.5641C40.4333 33.5988 40.4312 33.6371 40.4415 33.6731C40.4518 33.7091 40.4741 33.7406 40.5046 33.7625C40.6421 33.8754 40.8038 33.9555 40.9773 33.9966C41.934 34.0198 42.8669 33.6985 43.6035 33.0919C44.5478 32.3747 45.4102 30.9542 45.1384 30.2955C44.8666 29.6368 44.6518 29.8571 44.5478 29.3581C44.4902 29.1553 44.4655 28.9446 44.4749 28.7341C44.4749 28.7341 44.239 28.8442 44.1751 28.9871C44.2645 29.2933 44.2873 29.6148 44.242 29.9305Z" fill="#55AB60"/>
<path opacity="0.2" d="M45.1511 30.3054C45.0887 30.1283 44.9861 29.9677 44.8513 29.8362C44.8416 30.5955 44.594 31.333 44.1428 31.9462C43.7122 32.5109 43.1521 32.9656 42.5091 33.2725C41.866 33.5794 41.1586 33.7297 40.4453 33.7109C40.4568 33.7337 40.474 33.7532 40.4953 33.7675C40.6327 33.8804 40.7944 33.9605 40.9679 34.0016C41.9247 34.0249 42.8576 33.7035 43.5942 33.0969C44.5395 32.3866 45.4079 30.9661 45.1511 30.3054Z" fill="black"/>
<path d="M44.247 29.3204C44.2123 29.1996 44.1712 29.0807 44.124 28.9642C44.2209 28.8397 44.3523 28.746 44.502 28.6944V29.0813C44.502 29.0813 44.372 29.3035 44.247 29.3204Z" fill="#263238"/>
<path d="M40.5036 33.4044C40.468 33.4439 40.4346 33.4853 40.4036 33.5284C40.3874 33.575 40.3863 33.6255 40.4007 33.6727C40.4151 33.72 40.4441 33.7614 40.4836 33.7913C40.4982 33.8066 40.5158 33.8188 40.5351 33.8273C40.5545 33.8358 40.5754 33.8405 40.5966 33.8409C40.5502 33.769 40.5164 33.6899 40.4966 33.6068C40.4949 33.5393 40.4972 33.4717 40.5036 33.4044Z" fill="#263238"/>
<path d="M45.541 30.6536C45.1232 32.2101 43.2365 33.0612 41.3798 33.0701C41.2441 33.1556 41.1327 33.2741 41.056 33.4143C41.0318 33.4443 41.0186 33.4816 41.0186 33.52C41.0186 33.5584 41.0318 33.5957 41.056 33.6256C41.1678 33.7699 41.3128 33.8855 41.4787 33.9629C42.4089 34.1866 43.3892 34.0667 44.2369 33.6256C45.3021 33.1148 46.4523 31.9075 46.3264 31.2091C46.2005 30.5108 45.9417 30.6794 45.9467 30.1725C45.9307 29.9627 45.9506 29.7517 46.0056 29.5485C45.8765 29.5764 45.7577 29.6397 45.6629 29.7311C45.6961 30.0438 45.6543 30.3599 45.541 30.6536Z" fill="#55AB60"/>
<path opacity="0.2" d="M46.3396 31.2121C46.3169 31.0251 46.2517 30.8456 46.1487 30.6874C45.9806 31.4268 45.5854 32.0961 45.0175 32.6029C44.4786 33.0668 43.8359 33.3961 43.1428 33.5633C42.4497 33.7305 41.7264 33.7308 41.0332 33.5641C41.0395 33.5884 41.0515 33.6108 41.0682 33.6296C41.1808 33.7731 41.3255 33.8886 41.4909 33.9669C42.4214 34.189 43.4015 34.0681 44.249 33.6266C45.3143 33.1187 46.4645 31.9115 46.3396 31.2121Z" fill="black"/>
<path d="M45.6729 30.0704C45.6729 30.0704 45.6519 29.7956 45.6279 29.6974C45.749 29.5968 45.8964 29.5324 46.0529 29.5119L45.9679 29.8888C45.9679 29.8888 45.7979 30.0704 45.6729 30.0704Z" fill="#263238"/>
<path d="M41.1531 33.2774C41.1531 33.2774 41.0701 33.3379 41.0281 33.3766C41.0029 33.4187 40.9917 33.4676 40.996 33.5164C41.0003 33.5651 41.0199 33.6113 41.0521 33.6484C41.1091 33.7189 41.1521 33.7208 41.1521 33.7208C41.1215 33.6415 41.1046 33.5577 41.1021 33.4728C41.1181 33.3965 41.1531 33.2774 41.1531 33.2774Z" fill="#263238"/>
<path d="M46.6378 32.4034L35.1108 33.9738L36.8841 46.7821L48.4111 45.2117L46.6378 32.4034Z" fill="#55AB60"/>
<path opacity="0.8" d="M46.6378 32.4034L35.1108 33.9738L36.8841 46.7821L48.4111 45.2117L46.6378 32.4034Z" fill="white"/>
<path opacity="0.2" d="M46.6371 32.403L43.2354 32.8667L45.0074 45.6751L48.4091 45.2114L46.6371 32.403Z" fill="#55AB60"/>
<path opacity="0.2" d="M48.4164 45.2101L46.5437 44.2112L44.9448 32.6356L46.6437 32.4035L48.4164 45.2101Z" fill="#55AB60"/>
<path opacity="0.3" d="M46.5397 44.2112L45.0098 45.6744L48.4124 45.2101L46.5397 44.2112Z" fill="#55AB60"/>
<path d="M50.271 43.4147L48.5142 42.7302L48.687 44.9126C49.3443 44.8795 49.9752 44.6461 50.4938 44.244L50.271 43.4147Z" fill="#FFB573"/>
<path d="M55.8141 32.5255C56.2868 33.8379 56.6925 35.1414 57.0423 36.4935C57.2172 37.166 57.382 37.8436 57.5149 38.5469C57.5789 38.8961 57.6359 39.2502 57.6778 39.6202C57.7248 40.0092 57.7415 40.4012 57.7278 40.7928C57.7198 41.0466 57.6802 41.2985 57.6099 41.5427C57.5138 41.8433 57.3524 42.1192 57.1372 42.3512C56.8235 42.6845 56.451 42.9578 56.038 43.1577C55.3606 43.4846 54.6473 43.7322 53.9124 43.8957C52.5376 44.2124 51.1356 44.3984 49.7253 44.4512L49.5884 43.3541C50.2309 43.2013 50.8875 43.0327 51.53 42.8581C52.1726 42.6835 52.8082 42.4831 53.4198 42.2629C54.0033 42.0646 54.5657 41.8094 55.0986 41.5011C55.2925 41.3886 55.4658 41.2444 55.6112 41.0745C55.6492 41.016 55.6492 40.9991 55.6422 40.9991C55.6483 40.9132 55.6483 40.8271 55.6422 40.7412C55.6316 40.4581 55.6015 40.176 55.5523 39.897C55.5053 39.5925 55.4414 39.28 55.3704 38.9596C55.2215 38.3336 55.0586 37.6958 54.8708 37.0579C54.502 35.7921 54.0893 34.5045 53.6716 33.2556L55.8141 32.5255Z" fill="#FFB573"/>
<path d="M46.8853 43.8074L47.0222 44.3134C47.0659 44.4744 47.1608 44.6171 47.2928 44.7202C47.4248 44.8234 47.5868 44.8814 47.7547 44.8857L48.6991 44.9115L48.5272 42.7291L47.5639 42.8393C47.4514 42.8504 47.3426 42.8858 47.2452 42.9427C47.1478 42.9997 47.064 43.0769 46.9996 43.1692C46.9352 43.2614 46.8917 43.3664 46.8721 43.4769C46.8526 43.5875 46.8574 43.7009 46.8863 43.8094L46.8853 43.8074Z" fill="#FFB573"/>
<path d="M54.8125 30.0822C55.7998 30.479 56.6112 33.702 56.6112 33.702L53.8841 35.812C53.8841 35.812 51.9524 32.8092 52.3471 31.5057C52.6779 30.4056 53.5563 29.5783 54.8125 30.0822Z" fill="#55AB60"/>
<g opacity="0.5">
<path opacity="0.5" d="M54.8125 30.0822C55.7998 30.479 56.6112 33.702 56.6112 33.702L53.8841 35.812C53.8841 35.812 51.9524 32.8092 52.3471 31.5057C52.6779 30.4056 53.5563 29.5783 54.8125 30.0822Z" fill="black"/>
</g>
<path d="M65.3474 82.7441H65.3124C65.2631 82.7413 65.2153 82.7256 65.1739 82.6989C65.1325 82.6721 65.0989 82.635 65.0764 82.5914C65.0589 82.5666 65.0484 82.5376 65.046 82.5074C65.0435 82.4773 65.0492 82.447 65.0624 82.4198C65.1824 82.1857 65.9414 82.0914 66.0264 82.0825C66.0364 82.0809 66.0467 82.0825 66.0557 82.0871C66.0647 82.0918 66.072 82.0992 66.0764 82.1083C66.0815 82.1163 66.0843 82.1256 66.0843 82.135C66.0843 82.1445 66.0815 82.1538 66.0764 82.1618C65.9144 82.3761 65.6074 82.7253 65.3474 82.7441ZM65.9214 82.1976C65.6214 82.2422 65.2124 82.3384 65.1554 82.4644C65.1482 82.4757 65.1444 82.4887 65.1444 82.5021C65.1444 82.5154 65.1482 82.5285 65.1554 82.5398C65.1697 82.5685 65.1916 82.5929 65.2187 82.6103C65.2458 82.6278 65.2771 82.6377 65.3094 82.639C65.4564 82.6459 65.6924 82.4823 65.9284 82.1936L65.9214 82.1976Z" fill="#263238"/>
<path d="M65.9895 82.1886C65.7315 82.2055 65.2215 82.0994 65.1125 81.903C65.0941 81.8679 65.0884 81.8276 65.0962 81.7888C65.104 81.75 65.1249 81.7151 65.1555 81.6897C65.1817 81.6618 65.2137 81.64 65.2493 81.6258C65.2849 81.6116 65.3232 81.6053 65.3615 81.6073C65.6685 81.6073 66.0615 82.0765 66.0705 82.1033C66.0751 82.1103 66.0775 82.1184 66.0775 82.1266C66.0775 82.1349 66.0751 82.143 66.0705 82.15C66.0682 82.1585 66.0633 82.1663 66.0566 82.1721C66.0498 82.1779 66.0414 82.1816 66.0325 82.1827L65.9895 82.1886ZM65.3375 81.7055C65.296 81.7089 65.2573 81.7273 65.2285 81.7571C65.1835 81.8038 65.1905 81.8345 65.2025 81.8563C65.2715 81.9853 65.6755 82.0904 65.9325 82.0904C65.7935 81.9426 65.5405 81.7105 65.3585 81.7036L65.3375 81.7055Z" fill="#263238"/>
<path d="M37.1688 84.9802C37.0074 84.9265 36.8659 84.8259 36.7628 84.6915C36.7384 84.6513 36.7236 84.6061 36.7195 84.5593C36.7153 84.5126 36.7219 84.4655 36.7388 84.4217C36.7469 84.3969 36.7614 84.3747 36.7809 84.3573C36.8004 84.3398 36.8241 84.3278 36.8498 84.3225C37.1188 84.2709 37.7568 84.9504 37.8828 85.0893C37.8886 85.0976 37.8917 85.1074 37.8917 85.1175C37.8917 85.1277 37.8886 85.1375 37.8828 85.1458C37.8776 85.1551 37.8696 85.1626 37.8599 85.1672C37.8503 85.1718 37.8394 85.1734 37.8288 85.1716C37.603 85.1295 37.3819 85.0654 37.1688 84.9802ZM36.9688 84.4316C36.9379 84.4163 36.9033 84.4097 36.8688 84.4127C36.8688 84.4127 36.8428 84.4127 36.8338 84.4475C36.8218 84.4779 36.8172 84.5106 36.8201 84.5432C36.8231 84.5757 36.8336 84.6071 36.8508 84.6349C37.0804 84.861 37.3818 85.0012 37.7038 85.0318C37.4912 84.7942 37.2433 84.5902 36.9688 84.4266V84.4316Z" fill="#263238"/>
<path d="M37.8263 85.1587C37.8197 85.1562 37.8139 85.1521 37.8093 85.1468C37.5923 84.9335 37.2423 84.2957 37.3623 84.0923C37.3903 84.0477 37.4473 84.001 37.5723 84.0358C38.0453 84.1717 37.9003 85.0813 37.8933 85.121C37.8921 85.1301 37.8881 85.1386 37.8818 85.1453C37.8755 85.1521 37.8673 85.1567 37.8583 85.1587C37.8533 85.1609 37.8478 85.162 37.8423 85.162C37.8368 85.162 37.8313 85.1609 37.8263 85.1587ZM37.5903 84.1409H37.5573C37.5073 84.127 37.4743 84.129 37.4623 84.1409C37.3913 84.2609 37.6163 84.7411 37.8213 84.997C37.8263 84.7738 37.8543 84.258 37.5893 84.1429L37.5903 84.1409Z" fill="#263238"/>
<path d="M49.5308 23.2275L49.1738 22.9934C49.1738 22.9934 49.2768 23.3595 49.5308 23.2275Z" fill="#263238"/>
</svg>
