<svg width="24" height="24" viewBox="0 0 24 24" fill="none" xmlns="http://www.w3.org/2000/svg">
<path d="M11.7209 0C5.25818 0 0 5.38338 0 12C0 18.6166 5.25818 24 11.7209 24C18.1837 24 23.4418 18.6166 23.4418 12C23.4418 5.38338 18.1837 0 11.7209 0ZM11.7209 1.84615C17.209 1.84615 21.6386 6.38123 21.6386 12C21.6386 17.6188 17.209 22.1538 11.7209 22.1538C6.23282 22.1538 1.80322 17.6188 1.80322 12C1.80322 6.38123 6.23282 1.84615 11.7209 1.84615ZM8.31284 7.18154L7.01452 8.51077L10.4262 12L7.01632 15.4892L8.31464 16.8185L11.7209 13.3265L15.129 16.8157L16.4273 15.4892L13.0165 12L16.4246 8.51077L15.129 7.18154L11.7209 10.6745L8.31284 7.18338V7.18154Z" fill="black"/>
</svg>
