<svg width="16" height="9" viewBox="0 0 16 9" fill="none" xmlns="http://www.w3.org/2000/svg">
<path d="M7.9945 6.28674L14.0506 0.330254C14.1565 0.225587 14.2825 0.142529 14.4212 0.0858527C14.5599 0.0291766 14.7087 0 14.8589 0C15.0091 0 15.1579 0.0291766 15.2966 0.0858527C15.4353 0.142529 15.5613 0.225587 15.6672 0.330254C15.8804 0.542528 16 0.8288 16 1.12708C16 1.42535 15.8804 1.71162 15.6672 1.9239L8.80531 8.67229C8.59706 8.87641 8.31671 8.99371 8.02264 8.99975C7.72858 9.0058 7.44348 8.90013 7.22672 8.70475L0.31977 1.92882C0.112134 1.71665 -0.00264324 1.43297 4.62193e-05 1.13861C0.00273568 0.844255 0.122678 0.562651 0.334157 0.354179C0.545636 0.145707 0.831814 0.0269647 1.13133 0.0234117C1.43085 0.0198588 1.71986 0.131778 1.9364 0.335173L7.9945 6.28674Z" fill="#424242"/>
</svg>
