<svg width="14" height="8" viewBox="0 0 14 8" fill="none" xmlns="http://www.w3.org/2000/svg">
<path d="M6.98901 7.26516C6.75576 7.26563 6.52972 7.18119 6.35013 7.02649L0.360621 1.83802C0.156761 1.66188 0.0285612 1.40878 0.0042241 1.13438C-0.020113 0.859988 0.0614061 0.586783 0.230848 0.374869C0.400289 0.162954 0.643774 0.0296897 0.907738 0.00439102C1.1717 -0.0209077 1.43452 0.0638319 1.63838 0.239969L6.98901 4.88884L12.3396 0.406C12.4417 0.319803 12.5592 0.255433 12.6854 0.216591C12.8115 0.177748 12.9437 0.165198 13.0745 0.179663C13.2053 0.194128 13.3321 0.235321 13.4475 0.300876C13.563 0.366431 13.6648 0.455055 13.7472 0.561654C13.8386 0.668351 13.9078 0.793524 13.9505 0.929331C13.9933 1.06514 14.0085 1.20865 13.9954 1.35088C13.9823 1.49311 13.9411 1.63099 13.8743 1.75589C13.8075 1.88078 13.7167 1.98999 13.6074 2.07669L7.61791 7.08875C7.43315 7.21899 7.21172 7.28111 6.98901 7.26516Z" fill="black"/>
</svg>
