<svg width="23" height="23" viewBox="0 0 23 23" fill="none" xmlns="http://www.w3.org/2000/svg">
<path d="M20.1403 10.4556C20.1403 12.3711 19.5723 14.2436 18.5081 15.8362C17.4438 17.4289 15.9312 18.6702 14.1615 19.4032C12.3918 20.1362 10.4445 20.3279 8.56579 19.9541C6.68711 19.5804 4.96146 18.6579 3.60707 17.3033C2.25267 15.9488 1.33037 14.2231 0.9568 12.3443C0.583229 10.4656 0.775166 8.5183 1.50834 6.74867C2.24151 4.97903 3.48299 3.46655 5.07577 2.4025C6.66855 1.33846 8.54109 0.770629 10.4566 0.770832C13.025 0.771105 15.4881 1.79158 17.3041 3.60779C19.1201 5.424 20.1403 7.88719 20.1403 10.4556Z" stroke="#9B9B9B" stroke-width="1.5" stroke-linecap="round" stroke-linejoin="round"/>
<path d="M22.229 22.2277L17.6759 17.6747" stroke="#9B9B9B" stroke-width="1.5" stroke-linecap="round" stroke-linejoin="round"/>
</svg>
